<?xml version="1.0" encoding="utf-8"?>
<!-- Generator: Adobe Illustrator 19.0.0, SVG Export Plug-In . SVG Version: 6.00 Build 0)  -->
<svg version="1.1"
	 id="svg3023" xmlns:rdf="http://www.w3.org/1999/02/22-rdf-syntax-ns#" xmlns:svg="http://www.w3.org/2000/svg" xmlns:sodipodi="http://sodipodi.sourceforge.net/DTD/sodipodi-0.dtd" xmlns:inkscape="http://www.inkscape.org/namespaces/inkscape" xmlns:dc="http://purl.org/dc/elements/1.1/" xmlns:cc="http://creativecommons.org/ns#" sodipodi:docname="black brown logo edited.pdf" inkscape:version="0.48.4 r"
	 xmlns="http://www.w3.org/2000/svg" xmlns:xlink="http://www.w3.org/1999/xlink" x="0px" y="0px"
	 viewBox="-395.6 331.9 214.6 338.2" style="enable-background:new -395.6 331.9 214.6 338.2;" xml:space="preserve">
<style type="text/css">
	.st0{fill:#FBC589;}
	.st1{fill:#945E29;}
	.st2{fill:#100F0D;}
</style>
<sodipodi:namedview  bordercolor="#666666" inkscape:cy="164.9375" borderopacity="1" objecttolerance="10" inkscape:zoom="1.5945434" id="namedview3025" inkscape:cx="104.675" gridtolerance="10" pagecolor="#ffffff" showgrid="false" guidetolerance="10" inkscape:current-layer="g3031" inkscape:window-maximized="1" inkscape:window-y="-8" inkscape:window-x="-8" inkscape:window-height="706" inkscape:window-width="1366" inkscape:pageshadow="2" inkscape:pageopacity="0">
	</sodipodi:namedview>
<g id="g3031" transform="matrix(1.25,0,0,-1.25,0,329.875)" inkscape:label="black brown logo edited" inkscape:groupmode="layer">
	<g id="g3033" transform="scale(0.24,0.24)">
		<path id="path3035_2_" class="st0" d="M-1309.9-1120.4l-0.1,787.7v0.5c0,10.7,0.7,21.3,2.1,31.9c9.7,75.4,52.5,144.3,112.4,194.4
			c64.4,53.8,147.3,85.1,233.6,85.1c92.1,0,180.5-38.1,245.9-98.1c60.9-55.8,103.8-132.6,103.8-213.8v-787.7"/>
		<path id="path3035_1_" class="st0" d="M-612.2-1120.4"/>
		<path id="path3037" class="st1" d="M-631.4-1102.3h-659.3l-0.1,769.6c0,10.1,0.7,20.2,1.9,30.2c9.2,71,49.7,135.9,106.1,183
			c60.8,50.8,139.2,80.5,220.8,80.5c87,0,170.7-36.3,232.5-92.9c57.1-52.3,97.9-124.6,97.9-200.8V-1102.3"/>
		<path id="path3039" class="st2" d="M-650.6-1084.2v751.5c0,75.4-42.9,142.8-92.1,187.9C-804.1-88.7-883.7-57-961.9-57
			c-73.6,0-148.2-26-208.1-75.9c-49-40.9-90.6-101-99.8-171.7c-1.2-9.3-1.8-18.7-1.8-28.1l0.1-751.5H-650.6"/>
		<path id="path3041" class="st0" d="M-1156.6-775.2h49.3v-16.6h-3.7c-2.4,0-4.1-0.2-5-0.8c-0.9-0.5-1.6-1.3-2-2.4
			c-0.4-1.1-0.6-3.2-0.6-6.4v-37.2h-14.8l-3.8,8.5c-4.5-3.5-9.2-6.2-14.1-7.9c-4.9-1.8-10-2.6-15.2-2.6c-9.2,0-17.6,2.6-25.2,7.9
			c-7.6,5.3-13.6,12.7-18,22.1c-4.4,9.5-6.6,20.1-6.6,31.8c0,11.6,2.2,22,6.5,31.2c4.4,9.2,10.5,16.4,18.3,21.7
			c7.9,5.3,16.3,8,25.5,8c4.5,0,8.9-0.7,13.3-2c4.4-1.3,8.2-3.1,11.3-5.3l2.7,5.3h10.2l9.1-39.3l-13.3-5.1
			c-4.5,8.6-8.1,14.5-10.7,17.6c-2.6,3.1-5.7,5.5-9.1,7.3c-3.4,1.8-6.7,2.6-9.9,2.6c-4.6,0-8.9-1.6-12.8-4.7
			c-4-3.1-7.1-7.7-9.5-13.7c-2.3-6-3.5-13.2-3.5-21.7c0-9.4,1.3-17.5,3.8-24.3c2.5-6.9,5.9-12,10-15.3c4.1-3.3,8.6-5,13.5-5
			c3.5,0,6.8,0.8,9.9,2.5c3.1,1.6,5.2,3.5,6.4,5.5c1.2,2.1,1.8,4.8,1.8,8.3v4.4c0,3-0.2,4.9-0.5,5.7c-0.5,1.1-1.2,2-2.1,2.5
			c-0.9,0.5-2.6,0.8-5.3,0.8h-5.7V-775.2"/>
		<path id="path3043" class="st0" d="M-1101-719.8h49.2v-16.4h-4.5c-2.6,0-4.3-0.3-5.2-0.8c-0.8-0.6-1.5-1.4-1.9-2.6
			c-0.4-1.2-0.6-3.4-0.6-6.7V-812c0-3.6,0.2-5.9,0.5-6.9c0.3-1,0.9-1.8,1.7-2.2c1-0.7,2.5-1,4.5-1h5.4v-16.4h-49.2v16.4h4
			c2.8,0,4.7,0.3,5.6,0.7c0.9,0.5,1.5,1.3,1.9,2.3c0.4,1.1,0.6,3.1,0.6,6.3v66c0,3.7-0.2,6.1-0.6,7.3c-0.4,1.2-1.1,2.1-2.1,2.7
			c-0.7,0.5-2.3,0.7-4.9,0.7h-4.5V-719.8"/>
		<path id="path3045" class="st0" d="M-988-719.8v-19.3c3.8-0.2,6.6-0.6,8.4-1.3c2.5-0.9,4.4-2.5,5.8-4.7c1.3-2.2,2-4.9,2-8
			c0-3-0.7-5.6-2.1-8c-1.4-2.3-3.5-4-6.2-5.1c-1.9-0.8-4.5-1.3-7.8-1.5v-17.7c4.2-0.2,7.5-0.8,9.8-1.8c2.8-1.2,4.9-3.1,6.3-5.6
			c1.4-2.4,2.1-5.4,2.1-8.9c0-4.2-1-7.7-3-10.7c-2-2.9-4.4-4.9-7.2-5.8c-2.2-0.8-4.9-1.2-8-1.4v-19c11.3,0,19.9,1.4,25.8,4.2
			c5.9,2.8,10.5,6.8,13.7,12.1c3.2,5.3,4.9,11.1,4.9,17.4c0,5.3-1.1,10.1-3.2,14.4c-2.1,4.3-5,7.6-8.6,10c-2.5,1.7-6.1,3.3-10.8,4.7
			c4.4,1.8,7.9,4,10.6,6.7c2.7,2.7,4.7,5.8,6.1,9.3c1.4,3.5,2.1,7.2,2.1,11.2c0,5.4-1.3,10.3-4.1,14.8c-2.7,4.5-6.5,8-11.6,10.4
			c-5,2.4-11.9,3.6-20.7,3.6L-988-719.8L-988-719.8z M-1041.1-736.2v16.4h53.1v-19.3c-1.5,0.1-3.2,0.1-5.1,0.1h-11.1v-28.9h11.1
			c1.8,0,3.5,0.1,5.1,0.2v-17.7c-1,0-2,0.1-3,0.1h-13.1v-25.7c0-3.6,0.2-5.8,0.3-6.4c0.2-0.8,0.6-1.4,1.2-1.7
			c0.5-0.3,2.1-0.5,4.5-0.5h7.4c0.9,0,1.8,0,2.7,0.1v-19h-53.1v16.4h4c2.6,0,4.4,0.3,5.4,0.8c0.9,0.6,1.6,1.3,2,2.3
			c0.4,1,0.6,3.2,0.6,6.7v66.2c0,3.5-0.2,5.8-0.6,6.7c-0.4,1-1,1.7-2,2.3c-0.9,0.6-2.7,0.8-5.4,0.8L-1041.1-736.2L-1041.1-736.2"/>
		<path id="path3047" class="st0" d="M-881.3-719.8v-19.3c3.8-0.2,6.6-0.6,8.4-1.3c2.5-0.9,4.4-2.5,5.8-4.7c1.3-2.2,2-4.9,2-8
			c0-3-0.7-5.6-2.1-8c-1.4-2.3-3.5-4-6.2-5.1c-1.9-0.8-4.5-1.3-7.8-1.5v-17.7c4.2-0.2,7.5-0.8,9.8-1.8c2.8-1.2,4.9-3.1,6.3-5.6
			c1.4-2.4,2.1-5.4,2.1-8.9c0-4.2-1-7.7-3-10.7c-2-2.9-4.4-4.9-7.2-5.8c-2.2-0.8-4.9-1.2-8-1.4v-19c11.3,0,19.9,1.4,25.8,4.2
			c5.9,2.8,10.5,6.8,13.7,12.1c3.2,5.3,4.9,11.1,4.9,17.4c0,5.3-1.1,10.1-3.2,14.4c-2.1,4.3-5,7.6-8.6,10c-2.5,1.7-6.1,3.3-10.8,4.7
			c4.4,1.8,7.9,4,10.6,6.7c2.7,2.7,4.7,5.8,6.1,9.3c1.4,3.5,2.1,7.2,2.1,11.2c0,5.4-1.3,10.3-4.1,14.8c-2.7,4.5-6.5,8-11.6,10.4
			c-5,2.4-11.9,3.6-20.7,3.6C-877-719.8-881.3-719.8-881.3-719.8z M-934.4-736.2v16.4h53.1v-19.3c-1.5,0.1-3.2,0.1-5.1,0.1h-11.1
			v-28.9h11.1c1.8,0,3.5,0.1,5.1,0.2v-17.7c-1,0-2,0.1-3,0.1h-13.1v-25.7c0-3.6,0.1-5.8,0.3-6.4c0.2-0.8,0.6-1.4,1.2-1.7
			c0.5-0.3,2-0.5,4.5-0.5h7.4c0.9,0,1.8,0,2.7,0.1v-19h-53.1v16.4h4c2.6,0,4.4,0.3,5.4,0.8c0.9,0.6,1.6,1.3,2,2.3
			c0.4,1,0.6,3.2,0.6,6.7v66.2c0,3.5-0.2,5.8-0.6,6.7c-0.4,1-1,1.7-2,2.3c-0.9,0.6-2.7,0.8-5.4,0.8L-934.4-736.2L-934.4-736.2"/>
		<path id="path3049" class="st0" d="M-818.5-766.5L-823-738c-0.6,3.8-0.9,6.5-0.9,8c0,3.5,0.8,6.4,2.5,8.8c1.7,2.3,3.6,3.5,5.9,3.5
			c2.3,0,4.2-1.2,5.8-3.5c1.6-2.3,2.5-5.3,2.5-8.9c0-1.7-0.2-3.7-0.6-6l-0.3-1.9l-4.6-28.5H-818.5"/>
		<path id="path3051" class="st0" d="M-716.2-719.8l8.7-39.8l-13.5-4.5c-4.5,9.5-9.6,16.4-15.3,20.8c-5.7,4.4-11.7,6.6-18.1,6.6
			c-4.1,0-7.4-1-9.8-3c-2.4-2-3.6-4.2-3.6-6.6c0-2.8,1.1-5.4,3.3-7.8c2.1-2.4,6-4.5,11.7-6.4l19.4-6.7c10.8-3.6,18.4-8.5,23-14.5
			c4.5-6.1,6.8-13.1,6.8-21.2c0-10.3-3.5-19-10.4-26c-7.8-7.9-17.4-11.7-28.9-11.7c-5.4,0-10.3,0.8-14.8,2.4
			c-4.5,1.6-9.2,4.3-14,8.1l-3.2-8.5h-10.8l-7.2,46.1l13.5,3.8c3.2-9.4,8.2-17.2,14.9-23.4c6.7-6.3,14.1-9.4,22.2-9.4
			c3.6,0,6.6,0.5,9,1.6c2.4,1.1,4.2,2.6,5.4,4.5c1.2,1.9,1.8,3.9,1.8,6c0,3.4-1.4,6.3-4.2,8.8c-2.8,2.4-7.8,4.9-14.9,7.2l-16.9,5.8
			c-2.5,0.8-6,2.4-10.4,4.8c-4.4,2.4-7.7,4.8-10,7.4c-2.3,2.6-4.3,5.8-5.8,9.8c-1.6,4-2.3,8.2-2.3,12.6c0,6.3,1.5,12.1,4.5,17.4
			c3,5.3,7.4,9.6,13.4,12.9c5.9,3.3,12.5,4.9,19.8,4.9c8.7,0,16.6-2.7,23.7-8l2.8,5.9H-716.2"/>
		<path id="path3053" class="st0" d="M-1200.6-855h30.5v-10.2h-2.8c-1.5,0-2.6-0.2-3.2-0.5c-0.6-0.4-1-0.9-1.2-1.6
			c-0.2-0.7-0.4-2.2-0.4-4.5v-12.8h22.8v13.8c0,1.7-0.1,2.8-0.3,3.4c-0.2,0.8-0.6,1.4-1.2,1.7c-0.6,0.3-1.8,0.5-3.8,0.5h-2.4v10.2
			h30.6v-10.2h-2.6c-1.7,0-2.9-0.2-3.4-0.5c-0.6-0.3-1-0.8-1.2-1.5c-0.2-0.7-0.3-2.2-0.3-4.6v-39.9c0-2.4,0.1-4,0.4-4.8
			c0.3-0.7,0.7-1.2,1.3-1.5c0.6-0.3,1.9-0.4,4-0.4h1.8v-10.2h-30.6v10.2h2c1.9,0,3.2,0.2,3.8,0.5c0.7,0.3,1.1,0.9,1.4,1.5
			c0.3,0.7,0.4,2.2,0.4,4.7v15.6h-22.8v-15.6c0-2.4,0.1-4,0.3-4.6c0.3-0.9,0.8-1.5,1.4-1.7c0.6-0.3,1.9-0.4,3.8-0.4h2.1v-10.2h-30.5
			v10.2h2.1c1.7,0,2.9,0.2,3.6,0.5c0.7,0.3,1.2,0.9,1.4,1.5c0.3,0.6,0.4,2,0.4,4.2v40c0,2.5-0.1,4.1-0.4,4.9
			c-0.2,0.7-0.6,1.3-1.2,1.7c-0.5,0.4-1.6,0.5-3.1,0.5h-2.8V-855"/>
		<path id="path3055" class="st0" d="M-1127-855h30.5v-10.2h-3c-1.4,0-2.4-0.2-2.9-0.6c-0.6-0.4-1-0.9-1.3-1.7
			c-0.3-0.7-0.4-2.2-0.4-4.4v-26.8c0-5,0.4-8.7,1.3-11.2c0.9-2.5,2.1-4.3,3.9-5.6c1.7-1.3,3.8-1.9,6.3-1.9c2.4,0,4.6,0.7,6.5,2.1
			c1.9,1.4,3.3,3.2,4.1,5.4c0.8,2.2,1.2,5.7,1.2,10.7v29.5c0,1.2-0.1,2.1-0.4,2.6c-0.4,0.7-0.8,1.2-1.4,1.5
			c-0.4,0.2-1.5,0.3-3.2,0.3h-2.4v10.2h25.9v-10.2h-2c-2,0-3.2-0.1-3.7-0.4c-0.7-0.4-1.2-1-1.6-1.8c-0.2-0.5-0.4-2-0.4-4.4v-29
			c0-5.3-0.7-9.8-2-13.4c-1.8-4.9-4.7-8.8-8.7-11.5c-4-2.7-8.7-4.1-14.2-4.1c-3.9,0-7.3,0.7-10.4,2.1c-3,1.4-5.7,3.4-8,6
			c-2.3,2.6-3.9,5.3-4.8,8.2c-0.9,2.9-1.4,7.1-1.4,12.8v28.4c0,2.6-0.1,4.3-0.4,5c-0.2,0.7-0.6,1.3-1.2,1.7
			c-0.5,0.4-1.6,0.5-3.1,0.5h-2.9V-855"/>
		<path id="path3057" class="st0" d="M-1057.2-855h25.4l18.3-42.9v26.3c0,2.2-0.1,3.7-0.3,4.2c-0.3,0.8-0.7,1.4-1.2,1.8
			c-0.5,0.3-1.5,0.5-3,0.5h-3v10.2h25.8v-10.2h-2.9c-1.4,0-2.5-0.2-3.1-0.6c-0.6-0.4-1-0.9-1.3-1.6c-0.2-0.7-0.4-2.1-0.4-4.3v-56.9
			h-12.9l-23.2,54.2v-37.9c0-2.2,0.1-3.6,0.3-4.2c0.2-0.6,0.6-1.1,1.2-1.4c0.6-0.4,1.6-0.5,3-0.5h3v-10.2h-25.9v10.2h2.7
			c1.5,0,2.5,0.2,3.1,0.4c0.6,0.3,1,0.8,1.3,1.6c0.3,0.7,0.5,1.8,0.5,3.3v42.2c0,1.6-0.2,2.8-0.5,3.6c-0.3,0.8-0.7,1.3-1.2,1.6
			c-0.5,0.3-1.4,0.5-2.6,0.5h-3.3V-855"/>
		<path id="path3059" class="st0" d="M-953.9-855.1v-12.3c1.7-0.4,3.2-1,4.3-1.8c2.4-1.6,4.4-4.4,5.9-8.3c1.6-4,2.4-8.6,2.4-14
			c0-5.4-0.9-10.1-2.6-14c-1.7-3.9-3.9-6.8-6.7-8.6c-1-0.6-2.1-1.2-3.4-1.6V-928c1,0.2,2.2,0.4,3.3,0.6c4.2,0.8,7.4,1.9,9.7,3.1
			c3,1.7,5.8,4.2,8.5,7.6c2.6,3.3,4.6,7.1,5.9,11.3c1.3,4.2,2,8.9,2,14.2c0,7.6-1.3,14.2-3.9,19.6c-2.6,5.5-6.1,9.6-10.5,12.3
			C-942.8-856.8-947.7-855.4-953.9-855.1z M-989.4-855h32.8c1,0,1.9,0,2.8-0.1v-12.3c-1.7,0.4-3.6,0.6-5.8,0.6h-6.9v-45.7
			c0-1.5,0.1-2.5,0.2-2.9c0.2-0.5,0.6-0.9,1.1-1.1c0.5-0.2,1.6-0.3,3.4-0.3c3.1,0,5.8,0.4,8.1,1.1V-928c-2.7-0.4-4.9-0.6-6.7-0.6
			h-28.9v10.2h2.1c1.8,0,3,0.2,3.6,0.5c0.6,0.3,1,0.9,1.4,1.8c0.2,0.7,0.4,2.1,0.4,4.4v40.2c0,2.3-0.1,3.7-0.4,4.4
			c-0.3,0.6-0.7,1.1-1.3,1.5c-0.6,0.3-1.8,0.5-3.7,0.5h-2.1L-989.4-855"/>
		<path id="path3061" class="st0" d="M-883.4-855v-12.1c3-0.1,5.1-0.4,6.5-1c1.6-0.7,2.8-1.7,3.6-3.1c0.9-1.4,1.3-3,1.3-5
			c0-2.1-0.5-3.9-1.4-5.4c-0.9-1.5-2.3-2.6-4.1-3.4c-1.4-0.6-3.4-1-6-1.1v-20.7l13.8-21.8h20.1v10.2h-2.7c-1.2,0-2.2,0.1-2.9,0.4
			c-0.7,0.3-1.4,0.7-2,1.2c-0.7,0.6-1.5,1.5-2.3,2.7l-0.5,0.8l-12.9,17.6c4.6,1.1,8.6,3.3,12,6.8c3.4,3.5,5.1,8,5.1,13.6
			c0,3.4-0.7,6.5-2,9.3c-1.3,2.7-3.2,5-5.5,6.8c-2.4,1.8-5,3-8,3.5c-2.9,0.5-5.7,0.8-8.1,0.8C-879.4-855-883.4-855-883.4-855z
			 M-917.9-855h34.5v-12.1c-0.4,0-0.8,0-1.2,0h-10.3v-19h9.3c0.8,0,1.5,0,2.2,0v-20.7l-6.2,9.9h-5.2v-14.7c0-2.5,0.1-4.1,0.3-4.8
			c0.2-0.7,0.6-1.2,1.1-1.5c0.5-0.3,1.6-0.5,3.2-0.5h2.9v-10.2h-30.6v10.2h2.8c1.5,0,2.5,0.2,3.1,0.6c0.6,0.4,1.1,0.9,1.4,1.7
			c0.2,0.4,0.2,1.7,0.2,4v41.4c0,1.6-0.1,2.8-0.3,3.5c-0.2,0.7-0.6,1.1-1.1,1.3c-0.7,0.4-1.5,0.6-2.5,0.6l-1.3-0.1h-2.3L-917.9-855"
			/>
		<path id="path3063" class="st0" d="M-846.2-855h52.2l7.1-23.3l-8.1-3.4c-1.4,3.8-3,6.8-4.8,9.2c-1.8,2.3-3.9,3.9-6.1,4.6
			c-2.2,0.8-4.8,1.1-7.8,1.1h-9.6v-18.4h3.1c2.4,0,3.9,0.2,4.8,0.6c0.8,0.4,1.4,1,1.8,1.9c0.4,0.9,0.5,2.6,0.5,5.2v2.8h8v-31.1h-8
			v3.1c0,2.2-0.2,3.7-0.6,4.7c-0.4,1-1,1.7-1.8,2c-0.7,0.4-2.4,0.5-5,0.5h-2.8v-16.9c0-1.8,0.1-2.9,0.2-3.3c0.2-0.4,0.4-0.7,0.9-0.9
			c0.4-0.2,1.4-0.3,2.8-0.3h5.2c3.9,0,7.2,0.7,9.9,2c2.7,1.3,5.1,3.5,7.2,6.4c2.1,2.9,3.7,6.4,4.9,10.5l8.2-3.3l-8.2-27.3h-54.1
			v10.2h1.6c2.1,0,3.5,0.2,4.2,0.5c0.7,0.3,1.2,1,1.5,1.8c0.1,0.5,0.2,2,0.2,4.5v40.1c0,2.2-0.1,3.6-0.4,4.3
			c-0.3,0.7-0.7,1.2-1.2,1.5c-0.5,0.3-1.6,0.5-3.2,0.5h-2.8V-855"/>
		<path id="path3065" class="st0" d="M-744.6-855.1v-12.3c1.7-0.4,3.2-1,4.3-1.8c2.4-1.6,4.3-4.4,5.9-8.3c1.6-4,2.4-8.6,2.4-14
			c0-5.4-0.9-10.1-2.6-14c-1.7-3.9-3.9-6.8-6.7-8.6c-1-0.6-2.1-1.2-3.4-1.6V-928c1,0.2,2.2,0.4,3.3,0.6c4.2,0.8,7.4,1.9,9.7,3.1
			c3,1.7,5.8,4.2,8.5,7.6c2.6,3.3,4.6,7.1,5.9,11.3c1.3,4.2,2,8.9,2,14.2c0,7.6-1.3,14.2-3.9,19.6c-2.6,5.5-6.1,9.6-10.5,12.3
			C-733.5-856.8-738.4-855.4-744.6-855.1L-744.6-855.1z M-780.1-855h32.8c1,0,1.9,0,2.8-0.1v-12.3c-1.7,0.4-3.6,0.6-5.8,0.6h-6.9
			v-45.7c0-1.5,0.1-2.5,0.2-2.9c0.2-0.5,0.6-0.9,1-1.1c0.5-0.2,1.6-0.3,3.4-0.3c3.1,0,5.8,0.4,8.1,1.1V-928
			c-2.6-0.4-4.9-0.6-6.7-0.6h-28.9v10.2h2.1c1.8,0,3,0.2,3.6,0.5c0.6,0.3,1,0.9,1.4,1.8c0.2,0.7,0.4,2.1,0.4,4.4v40.2
			c0,2.3-0.1,3.7-0.4,4.4c-0.3,0.6-0.7,1.1-1.3,1.5c-0.6,0.3-1.8,0.5-3.7,0.5h-2.1L-780.1-855"/>
		<path id="path3067" class="st0" d="M-1157-983.1v5c0.2,0,0.4,0,0.6,0.1c0.6,0.1,1.2,0.3,1.8,0.6c0.5,0.3,1,0.8,1.3,1.5
			c0.3,0.7,0.5,1.6,0.5,2.8c0,1.1-0.1,1.9-0.4,2.6c-0.3,0.7-0.6,1.2-1.1,1.6c-0.5,0.4-0.9,0.6-1.5,0.8c-0.4,0.1-0.8,0.2-1.2,0.3v5.2
			c0.3,0.1,0.5,0.2,0.8,0.3c0.5,0.2,0.9,0.6,1.3,1c0.4,0.4,0.6,0.9,0.8,1.5c0.2,0.5,0.3,1.1,0.3,1.7c0,0.9-0.1,1.7-0.4,2.3
			c-0.3,0.6-0.6,1-1.1,1.4c-0.4,0.3-0.9,0.6-1.4,0.7l-0.3,0.1v5.1c0.8,0,1.5-0.1,2.2-0.2c0.9-0.1,1.8-0.3,2.6-0.6
			c0.8-0.3,1.5-0.6,2-1c0.8-0.6,1.5-1.2,2.1-2c0.6-0.7,1-1.5,1.2-2.3c0.3-0.8,0.4-1.6,0.4-2.4c0-1.1-0.2-2.1-0.6-3.1
			c-0.4-1-1-1.8-1.8-2.5c-0.4-0.4-0.8-0.7-1.2-1c-0.4-0.2-0.7-0.4-1.1-0.6c1.1-0.4,2-0.9,2.8-1.5c0.8-0.6,1.4-1.4,1.9-2.4
			c0.4-0.8,0.7-1.6,0.9-2.4c0.2-0.8,0.3-1.7,0.3-2.6c0-1.1-0.1-2.1-0.4-2.9c-0.2-0.9-0.6-1.6-1-2.3c-0.4-0.6-0.8-1.2-1.3-1.7
			c-0.5-0.5-0.9-0.8-1.3-1.1c-0.4-0.3-0.8-0.5-1.1-0.7c-0.6-0.3-1.2-0.5-2-0.7c-0.7-0.2-1.4-0.3-2.1-0.3c-0.7-0.1-1.2-0.1-1.7-0.1
			c-0.4,0-0.7,0-0.8,0C-1156.9-983.1-1157-983.1-1157-983.1z M-1167.6-948.7v-34.4h10.6v5c-0.4,0-0.9,0-1.3,0h-1.9v10.2h1.3
			c0.5,0,0.9,0,1.5,0c0.1,0,0.3,0,0.4,0v5.2c-0.1,0-0.2-0.1-0.3-0.1c-0.4-0.1-0.8-0.1-1.2-0.1c-0.4,0-0.7,0-0.9,0h-0.7v9.3h1.1
			c0.3,0,0.6,0,1,0c0.3,0,0.7-0.1,1.1-0.2v5.1c-0.2,0-0.5,0-0.7,0H-1167.6L-1167.6-948.7"/>
		<path id="path3069" class="st0" d="M-1129.9-970.1v6.8c0.3,0,0.5,0.1,0.8,0.2c0.5,0.2,1,0.5,1.3,0.8c0.3,0.4,0.6,0.7,0.8,1.2
			c0.2,0.4,0.3,0.8,0.4,1.2c0.1,0.4,0.1,0.8,0.1,1.1c0,0.5-0.1,1.1-0.2,1.7c-0.2,0.6-0.5,1.2-0.9,1.7c-0.4,0.4-0.8,0.7-1.2,0.9
			c-0.3,0.1-0.6,0.2-0.9,0.3v5.4c0.4,0,0.7-0.1,1.1-0.1c0.8-0.1,1.6-0.2,2.4-0.4c0.8-0.2,1.5-0.4,2.2-0.8c1.1-0.6,2-1.3,2.7-2.2
			c0.7-0.9,1.2-1.8,1.6-2.8c0.4-1,0.5-2.1,0.5-3.2c0-1.1-0.2-2.1-0.5-2.9c-0.3-0.8-0.7-1.6-1.1-2.2c-0.5-0.6-0.9-1.1-1.5-1.5
			c-0.5-0.4-1-0.7-1.4-1c-0.5-0.2-0.8-0.4-1.1-0.5c0.2-0.1,0.5-0.3,0.8-0.6c0.3-0.2,0.6-0.6,0.9-1.1c0.3-0.5,0.7-1.2,1.1-2.1
			c0.4-0.9,0.8-2.1,1.3-3.6c0.4-1.4,0.8-2.6,1.1-3.5c0.3-0.9,0.5-1.7,0.7-2.3c0.2-0.6,0.4-1.1,0.5-1.4c0.1-0.4,0.3-0.7,0.4-1.1
			c0.1-0.3,0.3-0.7,0.4-1.1h-7.7c-0.1,0.5-0.3,0.9-0.4,1.3c-0.1,0.4-0.2,0.8-0.4,1.2c-0.1,0.4-0.3,1-0.5,1.5
			c-0.2,0.6-0.4,1.3-0.7,2.2c-0.3,0.9-0.6,1.9-1,3.2c-0.4,1.2-0.8,2.2-1.1,2.9C-1129.7-970.5-1129.8-970.3-1129.9-970.1z
			 M-1140.7-948.7v-34.4h7.4v14.4c0.6,0,1.1,0,1.5-0.1c0.4-0.1,0.8-0.2,1.2-0.5c0.2-0.2,0.4-0.4,0.7-0.8v6.8l-0.1,0
			c-0.3-0.1-0.7-0.1-1-0.1c-0.3,0-0.7,0-0.9,0c-0.3,0-0.4,0-0.5,0h-0.8v9.4h1c0.7,0,1.2,0,1.8,0c0.2,0,0.4,0,0.5-0.1v5.4
			c-0.4,0-0.8,0-1.1,0.1c-0.7,0-1.3,0-1.8,0H-1140.7L-1140.7-948.7"/>
		<path id="path3071" class="st0" d="M-1113.9-948.7v-34.4h19.6v5.4h-12.2v9.6h10.8v5.4h-10.8v8.4h11.7v5.4H-1113.9"/>
		<path id="path3073" class="st0" d="M-1092.1-948.7l11.8-34.8h3.4l7.7,23.7l7.4-23.7h3.4l11.9,34.8h-7.4l-6-19.1l-6,19.1h-6.6
			l-6.2-19.1l-6,19.1H-1092.1"/>
		<path id="path3075" class="st0" d="M-1042.1-983.1h7.4v34.4h-7.4V-983.1z"/>
		<path id="path3077" class="st0" d="M-1028-948.7v-34.4h7v19.8l9.5-19.8h6.3v34.4h-7v-18.7l-8.8,18.7H-1028"/>
		<path id="path3079" class="st0" d="M-976.6-951c-0.3,0.2-0.7,0.5-1.2,0.8c-0.5,0.3-1.1,0.6-1.9,0.9c-0.7,0.3-1.6,0.5-2.6,0.7
			c-1,0.2-2.1,0.3-3.3,0.3c-2.1,0-4-0.4-5.6-1c-1.6-0.7-3-1.6-4.1-2.8c-1.1-1.2-2.1-2.5-2.8-4.1c-0.7-1.5-1.3-3.2-1.6-4.9
			c-0.3-1.7-0.5-3.4-0.5-5.2c0-2.7,0.4-5.1,1.1-7.3c0.7-2.1,1.7-3.9,3-5.4c1.3-1.5,2.8-2.6,4.5-3.3c1.7-0.8,3.6-1.2,5.6-1.2
			c1.2,0,2.4,0.1,3.4,0.4c1,0.2,2,0.6,2.9,1c0.9,0.4,1.7,0.8,2.4,1.3c0.7,0.5,1.4,0.9,2,1.4v14.8h-11.2v-5h3.8v-6.9
			c-0.3-0.2-0.8-0.3-1.2-0.5c-0.5-0.1-1.1-0.2-1.8-0.2c-1.1,0-2.1,0.2-2.8,0.7c-0.8,0.4-1.4,1-1.9,1.8c-0.5,0.7-0.9,1.5-1.2,2.4
			c-0.3,0.9-0.5,1.7-0.6,2.5c-0.1,0.8-0.2,1.5-0.2,2.2c0,0.6,0,1.1,0,1.3c0,2.7,0.4,4.9,1,6.6c0.7,1.8,1.6,3.1,2.9,4
			c1.2,0.9,2.7,1.3,4.4,1.3c1.1,0,2.1-0.2,3-0.5c0.9-0.3,1.8-0.7,2.6-1.2c0.8-0.5,1.5-1,2.1-1.5L-976.6-951"/>
		<path id="path3081" class="st0" d="M-937.1-950.1c-0.5,0.2-1.1,0.5-1.7,0.8c-0.7,0.3-1.4,0.5-2.3,0.7c-0.9,0.2-1.9,0.3-3,0.3
			c-1.9,0-3.7-0.4-5.4-1.1c-1.7-0.7-3.2-1.9-4.5-3.3c-1.3-1.5-2.3-3.3-3-5.6c-0.7-2.2-1.1-4.8-1.1-7.7c0-2.7,0.4-5.1,1-7.3
			c0.7-2.1,1.6-4,2.9-5.5c1.2-1.5,2.7-2.6,4.3-3.4c1.6-0.8,3.4-1.2,5.3-1.2c1,0,1.9,0.1,2.7,0.3c0.8,0.2,1.6,0.4,2.2,0.7
			c0.6,0.3,1.2,0.5,1.7,0.8c0.5,0.3,0.8,0.5,1.1,0.7v6.8c-0.9-0.9-1.9-1.6-3-2.1c-1.1-0.5-2.3-0.8-3.5-0.8c-0.9,0-1.8,0.2-2.7,0.6
			c-0.9,0.4-1.6,1.1-2.3,2c-0.7,0.9-1.2,2.1-1.6,3.5c-0.4,1.4-0.6,3.2-0.6,5.2c0,1.7,0.2,3.3,0.5,4.8c0.4,1.4,0.9,2.6,1.6,3.7
			c0.7,1,1.5,1.8,2.5,2.4c1,0.6,2.1,0.8,3.3,0.8c1,0,1.8-0.1,2.5-0.4c0.7-0.3,1.3-0.6,1.9-0.9c0.5-0.4,1-0.7,1.3-0.9L-937.1-950.1"
			/>
		<path id="path3083" class="st0" d="M-921.8-983.5l0,6.1c0.5,0,1,0.1,1.4,0.3c0.4,0.2,0.8,0.4,1.1,0.7c0.3,0.3,0.6,0.6,0.8,0.8
			c0.2,0.3,0.4,0.5,0.5,0.7c0.3,0.6,0.6,1.3,0.9,2c0.2,0.8,0.4,1.7,0.6,2.9c0.1,1.1,0.2,2.5,0.2,4.1c0,1.6-0.1,2.9-0.2,3.9
			c-0.1,1.1-0.3,2-0.5,2.7c-0.2,0.7-0.5,1.4-0.8,1.9c-0.2,0.4-0.5,0.9-0.9,1.3c-0.4,0.4-0.8,0.8-1.3,1c-0.5,0.3-1,0.4-1.5,0.4
			l-0.2,0l0,6.2c2,0,3.7-0.4,5.3-1.2c1.6-0.8,3-2,4.1-3.5c1.1-1.5,2-3.4,2.6-5.5c0.6-2.1,0.9-4.5,0.9-7.1c0-2.8-0.3-5.1-0.8-7.1
			c-0.5-2-1.3-3.7-2.2-5.1c-0.9-1.4-1.9-2.4-3-3.3c-1.1-0.8-2.3-1.4-3.4-1.7C-919.6-983.3-920.7-983.5-921.8-983.5L-921.8-983.5
			L-921.8-983.5z M-934.8-965.6c0-2.8,0.3-5.3,1-7.5c0.6-2.2,1.5-4.1,2.7-5.6c1.2-1.5,2.5-2.7,4.1-3.5c1.6-0.8,3.3-1.2,5.1-1.2
			l0,6.1h0c-0.5,0-1,0.1-1.4,0.3c-0.4,0.2-0.8,0.4-1.1,0.7c-0.3,0.3-0.6,0.6-0.8,0.8c-0.2,0.3-0.4,0.5-0.5,0.7
			c-0.2,0.4-0.4,0.8-0.6,1.4c-0.2,0.5-0.4,1.1-0.5,1.8c-0.1,0.7-0.3,1.5-0.3,2.5c-0.1,0.9-0.1,2.1-0.1,3.3c0,0.4,0,1,0,1.7
			c0,0.7,0.1,1.5,0.2,2.3c0.1,0.9,0.3,1.7,0.5,2.6c0.2,0.8,0.6,1.6,1,2.3c0.4,0.7,0.9,1.3,1.6,1.7c0.6,0.4,1.3,0.6,2.1,0.7l0,6.2
			l-0.2,0c-1.2,0-2.4-0.2-3.6-0.6c-1.2-0.4-2.3-1.1-3.4-1.9c-1.1-0.9-2.1-2-2.9-3.3c-0.9-1.4-1.6-3-2.1-4.9
			C-934.5-961-934.8-963.2-934.8-965.6L-934.8-965.6"/>
		<path id="path3085" class="st0" d="M-904-948.7v-34.4h7.4v21l6.1-12.2h1.2l6.2,12.5v-21.3h7.4v34.4h-6.9l-7.4-14.8l-7.5,14.8H-904
			"/>
		<path id="path3087" class="st0" d="M-858.3-969.1v5.4c0.5,0.1,0.9,0.3,1.4,0.5c0.6,0.3,1.2,0.8,1.5,1.5c0.4,0.7,0.6,1.6,0.6,2.8
			c0,1-0.1,1.8-0.4,2.4c-0.3,0.6-0.6,1.1-1.1,1.5c-0.4,0.3-0.9,0.6-1.4,0.8c-0.2,0.1-0.5,0.1-0.7,0.2v5.3c0.9,0,1.7-0.2,2.5-0.3
			c1.2-0.2,2.3-0.6,3.2-1.1c0.9-0.5,1.7-1.1,2.4-1.8c0.8-0.9,1.5-1.9,1.9-3.1c0.5-1.2,0.7-2.6,0.7-4c0-1.1-0.1-2.2-0.4-3.1
			c-0.3-0.9-0.6-1.7-1.1-2.3c-0.4-0.7-0.9-1.2-1.4-1.7c-0.5-0.5-1-0.8-1.4-1.1c-0.4-0.3-0.8-0.5-1.1-0.6c-0.6-0.3-1.2-0.5-1.9-0.6
			c-0.7-0.2-1.4-0.3-2.1-0.3C-857.5-969-857.9-969-858.3-969.1L-858.3-969.1z M-869.3-948.7v-34.4h7.4v14h2.2c0.2,0,0.5,0,1,0l0.4,0
			v5.4c-0.2,0-0.4-0.1-0.6-0.1c-0.7-0.1-1.4-0.1-2-0.1h-1v9.9h1.7c0.3,0,0.7,0,1.2,0c0.2,0,0.5-0.1,0.7-0.1v5.3
			c-0.5,0-1.1,0.1-1.7,0.1H-869.3L-869.3-948.7"/>
		<path id="path3089" class="st0" d="M-835-975.9v5h3l-3,14.1v8.4h3.9l8.9-34.7h-7.1l-1.6,7.2C-830.9-975.9-835-975.9-835-975.9z
			 M-839.1-948.4l-8.5-34.7h7.1l1.4,7.2h4.1v5h-3l3,14.4l0.1-0.2v8.4H-839.1L-839.1-948.4"/>
		<path id="path3091" class="st0" d="M-818.4-948.7v-34.4h7v19.8l9.5-19.8h6.3v34.4h-7v-18.7l-8.8,18.7H-818.4"/>
		<path id="path3093" class="st0" d="M-791.7-948.7l8.7-18.6v-15.8h7.4v15.8l8.6,18.6h-7.7l-4.6-10.9l-4.7,10.9H-791.7"/>
		<path id="path3095" class="st0" d="M-1068.9-690h240.1c2.6,0,4.8-2.2,4.8-4.8h0c0-2.6-2.2-4.8-4.8-4.8h-240.1
			c-2.6,0-4.8,2.2-4.8,4.8l0,0C-1073.7-692.2-1071.6-690-1068.9-690"/>
		<path id="path3097" class="st0" d="M-1030.1-672.9h162.5c2.6,0,4.8-2.2,4.8-4.8l0,0c0-2.6-2.2-4.8-4.8-4.8l-162.5,0
			c-2.6,0-4.8,2.1-4.8,4.8l0,0C-1034.9-675.1-1032.8-672.9-1030.1-672.9"/>
		<path id="path3099" class="st0" d="M-1068.9-1012.8h240.1c2.6,0,4.8-2.2,4.8-4.8h0c0-2.6-2.2-4.8-4.8-4.8h-240.1
			c-2.6,0-4.8,2.2-4.8,4.8l0,0C-1073.7-1014.9-1071.6-1012.8-1068.9-1012.8"/>
		<path id="path3101" class="st0" d="M-1019.1-577.4c-20.8-4.6-41.9-4.2-63.3-0.6C-1061.2-578.4-1040.1-578.2-1019.1-577.4z
			 M-1017-622.5c-20.8-4.6-41.9-4.2-63.3-0.6C-1059.2-623.5-1038.1-623.3-1017-622.5L-1017-622.5z M-1023.7-585.4
			c-25.1-4.6-50.6-2.5-76.3,1C-1074.6-584.7-1049.2-586.1-1023.7-585.4L-1023.7-585.4z M-1022.3-615.2c-25.1-4.6-50.6-2.5-76.3,1
			C-1073.2-614.5-1047.8-615.9-1022.3-615.2L-1022.3-615.2z M-1027.2-606.8c-25.1-4.6-50.6-2.5-76.3,1
			C-1078.1-606.2-1052.7-607.5-1027.2-606.8L-1027.2-606.8z M-1030.3-592.9c-19.4,0.6-49.3,2.3-78.6,1.8
			C-1085.9-594.7-1058-597.5-1030.3-592.9L-1030.3-592.9z M-1032.3-600.7c-27.7-4.6-65.4,0.9-88.4,4.5
			C-1091.4-595.7-1051.7-600.1-1032.3-600.7L-1032.3-600.7z M-979.4-586.9c-9.1-11.2-24.6-3.4-34.6,8.9
			C-1002.2-570.7-984.3-572.3-979.4-586.9L-979.4-586.9z M-953.1-584.5c-11.7-8.5-24.7,3-31.1,17.5
			C-970.9-562.9-954-569.1-953.1-584.5L-953.1-584.5z M-927.7-578.4c-11.7-8.5-24.7,3-31.1,17.5
			C-945.6-556.9-928.7-563.1-927.7-578.4L-927.7-578.4z M-901.4-564.8c-9.5-10.9-24.7-2.6-34.3,10
			C-923.7-547.9-905.8-550-901.4-564.8C-901.4-564.8-901.4-564.8-901.4-564.8z M-874.9-557.1c-9.5-10.9-24.7-2.6-34.3,10
			C-897.2-540.2-879.3-542.4-874.9-557.1C-874.9-557.1-874.9-557.1-874.9-557.1z M-899.5-580.1c9.3-12.2,0.5-28-12.2-33.6
			C-916.2-598.5-913.9-581.3-899.5-580.1L-899.5-580.1z M-872-573.8c-14.4,1.1-19.4-15.5-17.4-31.2
			C-876-601.5-864.8-587.4-872-573.8L-872-573.8z M-844.8-557.9c7.2-13.6-4-27.7-17.4-31.2C-864.3-573.3-859.3-556.7-844.8-557.9
			L-844.8-557.9z M-865.1-530.7c-1.2,0.9-2.6,1.7-4,2.4l-14.4-7.8c6.6-9,15.8-14.4,24.4-9.4L-865.1-530.7L-865.1-530.7z
			 M-921.3-592.5c5-14.5-8.4-26.7-22.1-28C-943-604.7-935.4-589.1-921.3-592.5L-921.3-592.5z M-948.4-600.8
			c2.4-15.2-12.9-24.8-26.6-23.7C-971.8-609-961.7-595-948.4-600.8L-948.4-600.8z M-975.8-605.4c-2.5-15.2-20-19.6-32.7-14.3
			C-1000.7-605.9-986.6-595.7-975.8-605.4L-975.8-605.4z M-839.1-545.7l-3.8,0.3c-42-26.7-89.3-43.2-139.7-53.2
			C-927-593-880.5-573.3-839.1-545.7L-839.1-545.7z M-758.6-453c-10.6-22.8-24.3-42.9-43.2-58.1l0.4-6.3
			c17.7,14.5,33.2,34.1,46.2,59.6L-758.6-453L-758.6-453z M-751-475.1c-2.8-40.2-40.4-100.4-75.7-124.9c-0.7-0.5,1.5-1.1,0.8-1.7
			c28.5,18.8,62.1,62.1,75.6,105.9L-751-475.1L-751-475.1z M-813.3-598.6c4.3-10.4-4.9-19.8-14.9-21.4
			C-828.6-608.4-823.7-596.7-813.3-598.6L-813.3-598.6z M-798-585.2c-10.5-1.4-11.5-14.1-7.5-25C-796.5-605.6-790.7-593.8-798-585.2
			L-798-585.2z M-784.3-569.7c8.6-7.2,5-19.8-3.1-25.9C-793.1-585.6-794.3-573-784.3-569.7L-784.3-569.7z M-761.9-506
			c-8.4,7.5-20.3,2-25.2-6.8C-776.3-517.1-763.6-516.4-761.9-506L-761.9-506z M-752.8-514.1c-9.4-4.8-6.2-17.1,1.1-26.1
			C-744.7-532.9-743.1-519.8-752.8-514.1L-752.8-514.1z M-761.6-535.6c9.7-5.7,8.1-18.8,1.1-26.1
			C-767.9-552.7-771.1-540.5-761.6-535.6L-761.6-535.6z M-775.4-553.7c-8.5-6.3-3.4-17.8,5.2-25.5
			C-764.4-570.9-765-557.8-775.4-553.7L-775.4-553.7z M-772.3-528.9c-8.4,7.5-20.3,2-25.2-6.9C-786.7-540-774-539.4-772.3-528.9
			L-772.3-528.9z M-782.5-544.8c-1.7-10.4-14.4-11.1-25.2-6.9C-802.8-542.8-790.9-537.3-782.5-544.8L-782.5-544.8z M-793.7-563.4
			c-6.4,9.2-19.4,6.6-26.1-1C-810.2-570.9-797.7-573.2-793.7-563.4L-793.7-563.4z M-807.1-576.8c-4.1-9.8-16.5-7.5-26.1-1
			C-826.5-570.3-813.6-567.6-807.1-576.8L-807.1-576.8z M-822.6-588.4c-8.6,7.2-20.4,1.4-24.9-7.6
			C-836.7-599.9-824.1-598.9-822.6-588.4L-822.6-588.4z M-850.3-617.2c-12.3-7-38.7-19.5-56.8-30.9
			C-891.4-641.6-865.8-630.7-850.3-617.2L-850.3-617.2z M-852-611.6c-12.3-7-31.6-17.4-49.6-28.9C-886-633.9-867.5-625.1-852-611.6
			L-852-611.6z M-844.8-619.1c-15.6-10.2-31.9-19-47.9-28.5C-875.3-640-858.7-631.5-844.8-619.1
			C-844.8-619.1-844.8-619.1-844.8-619.1z M-838.6-622.4c-15.6-10.2-31.9-19-47.9-28.5C-869.1-643.3-852.4-634.9-838.6-622.4
			L-838.6-622.4z M-850.8-604.4c-15.6-10.2-31.9-19-47.9-28.5C-881.4-625.3-864.7-616.9-850.8-604.4L-850.8-604.4z M-832.4-625
			c-11.2-10.8-24.5-18.6-39.2-24.5C-858.3-641.7-845.3-633.5-832.4-625L-832.4-625z M-850.9-597.7c-11.2-10.8-24.5-18.6-39.2-24.5
			C-876.8-614.4-863.8-606.2-850.9-597.7L-850.9-597.7z M-844.1-212.7l-21.3-6.4c-6.5,17.3-10.9,28.8-13.4,34.4L-899-142
			c-1.5,3.5-2.6,6.3-3.3,8.6c-1.1,3.7-1.2,7.5-0.3,11.3c0.9,3.8,2.7,7.2,5.4,10.1c2.7,2.9,5.8,4.9,9.3,5.9c3.5,1.1,7.2,1.1,11.2,0.2
			c3.9-1,7.3-2.8,10.2-5.6c2.9-2.8,4.9-6,5.9-9.6c0.9-2.9,1.6-6.7,2.2-11.4c2.8-22.5,5.2-39.5,7.3-51.1
			C-849.5-192.2-847.2-201.9-844.1-212.7L-844.1-212.7L-844.1-212.7z M-859.2-504.4l-6.6-4.7c-11.7-8.2-24.7-15.1-38.6-19.7
			c-13.3-4.3-27.2-6.5-41.3-6.5c-25.1,0-47.9,6.5-68.5,19.5c-22.1,13.9-38,33.2-49.4,55.2c-13,25.2-18.4,52.5-18.4,80.3
			c0,27.2,5.2,54,18.1,78.6c11.5,21.9,28,40.5,50.2,54.1c21,12.9,44.1,19.7,69.5,19.7c12.3,0,24.4-1.7,36.2-5
			c10.8-3,21.3-7.1,30.6-13l6.3-4l9.3,16.7h19.8l23.7-92.6l-27.3-9.5l-3,4.9c-3.8,6.4-7.8,12.7-12,19c-4.2,6.3-8.7,12.6-13.9,18.3
			c-7.9,8.4-17.2,15.4-28,20.5c-9.8,4.6-20.5,7.6-31.5,7.6c-15.3,0-28.9-4.9-40.9-13.4c-13.8-9.8-23-23.5-29.2-38.1
			c-7.9-18.5-10.4-39-10.4-58.7c0-22,2.8-44.7,11.2-65.4c6.4-15.8,16-31.6,30.6-42.3c12.5-9.1,26.9-14.2,43-14.2
			c11.1,0,21.6,2.4,31.4,7.1c8.2,3.9,16.4,9.3,21,16.7c4.6,7.3,5.9,16.1,5.9,24.4v11.3c0,4.8,0.1,12.9-2.1,17.3
			c-1.9,3.8-4.8,7-8.8,9.1c-4.9,2.6-12.9,2.8-18.4,2.8h-9.7v36.2h14.2v-23.4c7.3-0.2,14.9-1.2,21.2-4.5c6.5-3.5,11.4-8.7,14.5-14.9
			c3.2-6.6,3.3-15.4,3.3-22.5V-449c0-10.6-1.9-21.4-7.7-30.8c-6.1-9.7-16-16.6-26.7-21.7c-11.8-5.7-24.6-8.6-38-8.6
			c-19.4,0-36.9,6.1-51.9,17.1c-16.7,12.2-27.6,29.8-35,47.9c-9,22.2-12.1,46.3-12.1,69.8c0,21.4,2.8,43.3,11.3,63.3
			c5.1,12,11.9,23.2,21.1,32.8l-14.3,17.7c-17.6-12-30.8-27.6-40.4-45.8c-12-22.9-16.8-47.9-16.8-73.1c0-25.9,4.9-51.3,17-74.8
			c10.3-19.9,24.6-37.4,44.6-50.1c18.2-11.5,38.2-17.2,60.4-17.2c12.5,0,24.8,1.9,36.5,5.8c12.6,4.1,24.2,10.3,34.8,17.7l20.9,14.6
			l16.3-32.8h8.3v77.9c0,7.5,0.2,16.2,3.2,23.3c2.8,6.6,7.8,12.1,14.6,15.7c4.4,2.4,9.5,3.5,14.5,4.1v23.8h0v0h14.2v-10.6h-0.1
			v-25.5l-6.9-0.2c-4.6-0.1-10.6-0.6-14.6-2.8c-4-2.1-6.9-5.3-8.6-9.3c-2.2-5.3-2.3-13.1-2.3-18.7v-90.7h-31.7L-859.2-504.4
			L-859.2-504.4L-859.2-504.4z M-1147.2-279.1c0.8,10.2,19.8,11.4,47.7,4.1c12.4-3.3,31,3.5,41.8,4.9l13.2,13.3
			c-33.5,9.6-72.5,5.7-117.9-14.2c-10.2-17.5-12.8-35.1-7.4-52.6c-10.4-31.4-9.7-54.8,9.6-64.7c1-45.8-3.6-89.3-11.5-131.6
			c47.4-40.4,105.8-33.8,167.2-15.2c-17.4,8.6-29.7,17.1-37.8,25.7l-31.3-3.1l6.2,6.5c-35.2,0-61.2,0.6-56,3.7
			c-1.7,3.6,20.6,4.2,49.1,4.9c2.1,0.1,4.3,0.1,6.5,0.1c-14.5,3.1-39.1,6.9-60.6,10.8l52-0.2c-7.7,7.5-36.9,10.2-55.4,15.4l26.9,1.2
			c3.3,4.3-4.5,6.2-22.9,5.9c5.2,2.3,18.2,1.3,15.5,6.8l-13.3,2.8c7,2.9,14,6.1,19.2,10.5c-2.8,2.9-8.1,4.9-14.9,6.2
			c4,2.3,6.5,2.1,10.3,6.8c-2.6,2.6-7.2,3.1-13.1,2.5c3.4,4.8-2.2,10.4-0.6,15.2c14.5,10.9,14,19.8,6.8,32.3
			c0.5,5.2,3.4,10.5,9.6,15.7l13-0.9c1.9,16.1,5.2,32.2,9.9,48.3c-2,2.7-5,2.9-6.7,5.1c-9,11.4-17.7,10.7-23.4-17.1
			c-0.6-3.2-2.8-5.4-3.3-9.4c-12.1,8.4-4.3-18.3-11.8-15.2c-2.8,2.7-2.5,33.8-8.4,8c-2.8-7.6-7.1-18.7-11.1-21
			c4.5,14.4,3.3,49.2,13.9,41.2c2.6-2,5.5-7,8.7-7.1c7.7,2.2,9.2,26.3,24.1,35.3c5.6,3.4,12.9-9.9,18.9-9l23.5,32.2
			c-34.6-13.3-46.9,0.5-63.3,2.2C-1131.6-272.2-1139.3-275.1-1147.2-279.1L-1147.2-279.1"/>
	</g>
</g>
</svg>
