<?xml version="1.0" encoding="utf-8"?>
<!-- Generator: Adobe Illustrator 21.0.2, SVG Export Plug-In . SVG Version: 6.00 Build 0)  -->
<svg version="1.1" id="Layer_1" xmlns="http://www.w3.org/2000/svg" xmlns:xlink="http://www.w3.org/1999/xlink" x="0px" y="0px"
	 viewBox="0 0 216 216" style="enable-background:new 0 0 216 216;" xml:space="preserve">
<style type="text/css">
	.st0{fill:#CCCCCC;}
	.st1{fill:#FFFFFF;}
</style>
<g>
	<g>
		<circle class="st0" cx="108.5" cy="107.7" r="89.7"/>
	</g>
	<g>
		<path class="st1" d="M152.7,114.4c-0.5-11.6-6-23.1-22.9-22.2c-6.9,0.4-13.9,0-20.8,0c-0.2,0-0.1,0-0.6,0s-0.3,0-0.4,0
			c-6.9,0-13.9,0.4-20.8,0c-16.9-1-22.5,10.6-22.9,22.1c-0.5,11.7-0.3,23.4-0.2,35c0,5.7,4.1,9.8,9.3,9.9c4.8,0.1,8.3-3.5,8.4-9.5
			c0.3-9.6,0.2-19.2,0.3-28.8c0-1.3,0.1-2.7,0.4-4c0.1-0.4,0.8-0.8,1.2-1.2c0.3,0.4,0.8,0.8,0.8,1.3c0.1,1.2,0.1,2.4,0.1,3.5
			c0,14.9,0,29.8,0,44.8c0,6.7,1.3,7.9,8,7.9c5.3,0,10.2,0,15.9,0c5.7,0,10.7,0,16,0c6.8,0,8.1-1.2,8.1-7.9c0-14.9,0-29.8,0-44.8
			c0-1.2,0-2.4,0.1-3.5c0.1-0.5,0.6-0.9,0.9-1.3c0.4,0.4,1.1,0.7,1.2,1.2c0.3,1.3,0.4,2.6,0.4,4c0.1,9.6,0,19.2,0.3,28.8
			c0.2,6,3.7,9.5,8.5,9.5c5.2-0.1,9.2-4.2,9.3-9.9C153,137.7,153.2,126.1,152.7,114.4z"/>
		<path class="st1" d="M108.3,88c12.9-0.1,22.9-10.6,22.8-23.2c-0.1-12.3-10.3-22.4-22.7-22.4c-0.1,0-0.2,0-0.2,0s-0.1,0-0.1,0
			c-12.4,0-22.5,10.1-22.6,22.4C85.5,77.4,95.4,87.9,108.3,88z"/>
	</g>
</g>
</svg>
