<?xml version="1.0" encoding="utf-8"?>
<!-- Generator: Adobe Illustrator 21.0.2, SVG Export Plug-In . SVG Version: 6.00 Build 0)  -->
<svg version="1.1" id="Layer_1" xmlns="http://www.w3.org/2000/svg" xmlns:xlink="http://www.w3.org/1999/xlink" x="0px" y="0px"
	 viewBox="0 0 648 648" style="enable-background:new 0 0 648 648;" xml:space="preserve">
<style type="text/css">
	.st0{fill:#CCCCCC;}
	.st1{fill:#FFFFFF;}
</style>
<g>
	<g>
		<circle class="st0" cx="324.5" cy="324.7" r="278.5"/>
	</g>
	<g>
		<path class="st1" d="M461.9,345.5c-1.5-35.9-18.6-71.8-71.2-68.8c-21.5,1.2-43.1-0.1-64.7-0.1c-0.5,0-0.4,0-2,0
			c-1.6,0-0.8,0-1.3,0c-21.6,0-43.2,1.3-64.7,0.1c-52.5-3-69.7,32.8-71.2,68.7c-1.5,36.2-0.8,72.5-0.5,108.7
			c0.1,17.7,12.8,30.6,28.8,30.7c14.8,0.2,25.7-10.9,26.2-29.4c0.9-29.8,0.5-59.6,0.8-89.4c0-4.1,0.4-8.3,1.2-12.3
			c0.3-1.4,2.3-2.4,3.6-3.6c0.9,1.3,2.5,2.6,2.6,4c0.4,3.6,0.3,7.3,0.3,11c0,46.3-0.1,92.6,0,139c0,20.9,3.9,24.6,24.9,24.6
			c16.4,0,31.6,0,49.3,0c17.7,0,33.2,0,49.6,0c21,0,25-3.8,25.1-24.6c0.1-46.3,0.1-92.6,0.1-139c0-3.7-0.1-7.4,0.4-11
			c0.2-1.4,1.7-2.7,2.6-4c1.2,1.2,3.3,2.2,3.6,3.6c0.8,4,1.1,8.2,1.2,12.3c0.3,29.8-0.1,59.6,0.8,89.4c0.6,18.5,11.4,29.5,26.2,29.4
			c16-0.2,28.7-13,28.8-30.7C462.7,417.9,463.4,381.6,461.9,345.5z"/>
		<path class="st1" d="M324.1,263.6c40.1-0.3,71.2-32.9,70.9-72c-0.2-38.2-32-69.6-70.3-69.7c-0.2,0-0.6,0-0.6,0s-0.3,0-0.4,0
			c-38.3,0.1-69.9,31.5-70.1,69.7C253.2,230.7,283.9,263.3,324.1,263.6z"/>
	</g>
</g>
</svg>
