<?xml version="1.0" encoding="utf-8"?>
<!-- Generator: Adobe Illustrator 21.0.2, SVG Export Plug-In . SVG Version: 6.00 Build 0)  -->
<svg version="1.1" id="Layer_1" xmlns="http://www.w3.org/2000/svg" xmlns:xlink="http://www.w3.org/1999/xlink" x="0px" y="0px"
	 viewBox="0 0 216 216" style="enable-background:new 0 0 216 216;" xml:space="preserve">
<g>
	<path d="M149,189.3c0,2.9,2.3,5.2,5.2,5.2h4c2.9,0,5.2-2.3,5.2-5.2c0-0.1,0-0.2,0-0.3c-0.9,0.2-1.8,0.3-2.8,0.3H149z"/>
	<path d="M44.3,189.1c0,0.1,0,0.1,0,0.2c0,2.9,2.3,5.2,5.2,5.2h4c2.9,0,5.2-2.3,5.2-5.2H46.2C45.5,189.3,44.9,189.2,44.3,189.1z"/>
	<circle cx="111.6" cy="38.3" r="15.8"/>
	<path d="M28.6,144.2l36.8-8.1c2.9-0.6,5-3.2,5-6.2v-11.8l15.1,8.3l3.2,31.1c0.3,3.3,3.1,5.7,6.3,5.7c0.2,0,0.4,0,0.6,0
		c3.5-0.4,6-3.5,5.6-6.9L97.7,122c-0.2-2.1-1.4-3.9-3.2-4.9l-21.3-11.7l15.4-22.6v3.7c0,2.2,1.1,4.2,2.9,5.3l25.3,16.1
		c1.1,0.7,2.2,1,3.4,1c2.1,0,4.1-1,5.3-2.9c1.9-2.9,1-6.8-1.9-8.7L101.3,83V62.3c0,0,0,0,0,0v0c0-0.1,0-0.2,0-0.4
		c0-0.3,0-0.6-0.1-0.8c0-0.2-0.1-0.5-0.2-0.7c0-0.2-0.1-0.3-0.1-0.5c-0.1-0.2-0.2-0.5-0.4-0.7c-0.1-0.1-0.1-0.3-0.2-0.4
		c-0.2-0.3-0.5-0.6-0.7-0.9c-0.1-0.1-0.2-0.1-0.2-0.2c-0.2-0.2-0.5-0.4-0.7-0.6c0,0,0,0,0,0c-0.1-0.1-0.2-0.1-0.3-0.2
		c-0.2-0.1-0.5-0.3-0.7-0.4c-0.2-0.1-0.3-0.1-0.5-0.2c-0.2-0.1-0.4-0.1-0.6-0.2c-0.2,0-0.4-0.1-0.6-0.1c-0.1,0-0.3-0.1-0.4-0.1
		l-38.6-1.8c-3.3-0.1-6.1,2.3-6.6,5.5l-3.5,28.1c-0.4,3.5,2,6.6,5.5,7c3.5,0.4,6.6-2,7-5.5l2.8-22.3l21.4,1L58.9,104
		c-0.1,0.1-0.1,0.2-0.2,0.3c0,0.1-0.1,0.1-0.1,0.2c0,0,0,0.1-0.1,0.1c-0.2,0.3-0.3,0.7-0.4,1c0,0,0,0,0,0c-0.1,0.4-0.2,0.7-0.2,1.1
		c0,0.1,0,0.2,0,0.4c0,0.1,0,0.3,0,0.4v17.4l-31.9,7c-3.4,0.7-5.6,4.1-4.8,7.5c0.6,3,3.3,5,6.2,5C27.7,144.4,28.1,144.3,28.6,144.2z
		"/>
	<path d="M185.4,68.1l-22.3,23H137c-2.9,0-5.3,2.4-5.3,5.3c0,2.9,2.4,5.3,5.3,5.3h23l-2,64.5H46.2c-6.4,0-11.6,5.2-11.6,11.6
		c0,5.7,4.2,10.5,9.7,11.4c0.6,0.1,1.2,0.2,1.9,0.2h12.5H149h11.6c1,0,1.9-0.1,2.8-0.3c5.1-1.2,8.8-5.8,8.8-11.2
		c0-3.4-1.5-6.4-3.8-8.5c0,0,0,0,0-0.1l2.2-70.5L193,75.5c2-2.1,2-5.4-0.1-7.4C190.8,66,187.5,66.1,185.4,68.1z"/>
</g>
</svg>
